<?xml version="1.0" encoding="UTF-8"?><svg id="Livello_2" xmlns="http://www.w3.org/2000/svg" viewBox="0 0 198.41 89.14"><defs><style>.cls-1{fill:#fff;}.cls-2{fill:#ffd800;}</style></defs><g id="TDR_Light"><path id="R" class="cls-2" d="M130.8,42.72h38.15c1.15-.11,11.66-1.26,19.13-9.38,7.91-8.6,8.92-13.39,8.92-13.39,0,0,2.43-5.8,.88-11.47-1.55-5.67-6.66-8.48-11.59-8.48C181.92,0,21.2,0,1.59,0,.71,0,0,.72,0,1.59v7.2c.01,.88,.72,1.59,1.6,1.59l163.57,.03h.21c.66,.07,4.06,.52,5.24,2.91,1.3,2.64,.79,4.94-.1,6.52-.89,1.58-2.11,3.62-4.93,5.55-2.82,1.93-5.06,2.19-8.38,2.45-1.78,.14-20.35,.13-37.2,.09,.89,2.2,1.58,4.51,2.02,6.92,.43,2.36,.73,4.8,.93,7.28,.19,2.15,.29,4.31,.28,6.47h0c0,2.13-.08,4.25-.27,6.37-.19,2.5-.5,4.98-.94,7.38-.7,3.83-1.97,7.43-3.78,10.68-.45,.81-.95,1.58-1.48,2.33l17.78,13.31c.4,.3,.89,.46,1.39,.46h52.22c.74,0,1.06-.94,.46-1.39l-58.28-43.64c-.59-.44-.28-1.39,.46-1.39Z"/><g id="TD"><path class="cls-1" d="M112.69,36.55c-.5-2.72-1.38-5.33-2.74-7.77-2.05-3.68-5.1-6.09-9.1-7.3-2-.61-4.06-1-6.16-1.15-3.13-.22-6.88-.4-10.1-.39h-29.44l-53.65,.02c-.83,0-1.5,.67-1.5,1.5v7.52c0,.83,.67,1.5,1.5,1.5H19.68c.83,0,1.5,.67,1.5,1.5v43.75c0,.83,.67,1.5,1.5,1.5h10.48c.83,0,1.5-.67,1.5-1.5V31.99c0-.83,.67-1.5,1.5-1.5l19,.06,34.19,.04c1.24,0,2.45,.21,3.66,.51,2.47,.61,4.25,2.06,5.41,4.28,1.03,1.96,1.5,4.1,1.74,6.29,.25,2.31,.37,4.62,.38,6.93h0c0,2.31-.13,4.63-.38,6.94-.24,2.18-.71,4.32-1.74,6.29-1.16,2.22-2.94,3.67-5.41,4.28-1.21,.3-2.42,.5-3.66,.51h-19.87c-.83-.02-1.51-.69-1.51-1.52v-24.34c0-.83-.67-1.51-1.51-1.51h-10.4c-.83,0-1.51,.67-1.51,1.51v34.99c0,.83,.67,1.49,1.5,1.49h28.52c3.21,0,6.97-.16,10.1-.37,2.09-.14,4.15-.54,6.16-1.15,4-1.21,7.06-3.63,9.1-7.3,1.36-2.44,2.24-5.05,2.74-7.77,.73-3.99,1.04-8.01,1.03-12.04h0c.02-4.04-.29-8.06-1.02-12.05Z"/></g></g></svg>