<?xml version="1.0" encoding="UTF-8"?><svg id="Livello_2" xmlns="http://www.w3.org/2000/svg" viewBox="0 0 600.6 57.38"><defs><style>.cls-1{fill:#ffd800;}</style></defs><g id="TrackDayR_Dark"><path id="R" class="cls-1" d="M579.2,6.76c.43,.04,2.63,.33,3.39,1.88,.84,1.71,.51,3.2-.07,4.23s-1.37,2.35-3.2,3.6-3.28,1.42-5.43,1.59c-1.97,.15-35.94,.02-41.43,0-.47,0-.91,.22-1.2,.6l-7.69,10.27c-.5,.66-.36,1.6,.3,2.1l35.23,26c.26,.19,.57,.3,.9,.3h33.85c.48,0,.68-.61,.3-.9l-37.67-27.82c-.38-.29-.18-.9,.3-.9h24.72c.75-.07,7.56-.82,12.4-6.08,5.13-5.58,5.78-8.68,5.78-8.68,0,0,1.57-3.76,.57-7.43s-4.32-5.49-7.51-5.49c-2.95,0-40.94,0-46.77,0-.47,0-.92,.22-1.2,.6l-3.99,5.33c-.25,.33-.01,.8,.4,.8l38,.03Z"/><g id="Day"><path id="Y" d="M518.89,.59l-14.75,18.8c-.6,.77-1.76,.77-2.36,0L487.03,.59c-.28-.36-.72-.57-1.18-.57h-12.15c-.41,0-.65,.47-.4,.8l22.5,30.08c.19,.26,.3,.57,.3,.9v24.02c0,.83,.67,1.5,1.5,1.5h10.72c.83,0,1.5-.67,1.5-1.5V31.79c0-.32,.11-.64,.3-.9L532.62,.81c.25-.33,.01-.8-.4-.8h-12.15c-.46,0-.9,.21-1.18,.57Z"/><path id="A" d="M408.44,57.3h10.31c.57,0,1.1-.32,1.35-.83l20.58-41.83c.55-1.12,2.14-1.12,2.69,0l9.54,19.26c.49,1-.23,2.17-1.34,2.17h-11.24c-.58,0-1.11,.33-1.35,.86l-3.12,6.57c-.47,1,.25,2.14,1.35,2.14h20.55c.57,0,1.09,.33,1.35,.84l4.9,10c.25,.51,.76,.83,1.33,.84h10.2c1.12,.01,1.86-1.16,1.36-2.16L450.15,.86c-.25-.51-.77-.84-1.35-.84h-13.66c-.57,0-1.09,.33-1.35,.84l-26.7,54.28c-.49,1,.24,2.16,1.34,2.16Z"/><path id="D" d="M339.26,55.87c0,.83,.67,1.51,1.51,1.51h28.52c3.21,0,6.97-.18,10.1-.39,2.09-.14,4.15-.54,6.16-1.15,4-1.21,7.06-3.63,9.1-7.3,1.36-2.44,2.24-5.05,2.74-7.77,.73-3.99,1.04-8.01,1.03-12.04h0c.02-4.04-.29-8.06-1.02-12.05-.5-2.72-1.38-5.33-2.74-7.77-2.05-3.68-5.1-6.09-9.1-7.3-2-.61-4.06-1-6.16-1.15-3.13-.21-6.88-.4-10.1-.39h-28.52c-.83,0-1.51,.67-1.51,1.51v7.65c.01,.83,.69,1.51,1.52,1.51l33.27-.02c1.24,0,2.45,.21,3.66,.51,2.47,.61,4.25,2.06,5.41,4.28,1.03,1.96,1.5,4.1,1.74,6.29,.25,2.31,.37,4.62,.38,6.93h0c0,2.31-.13,4.63-.38,6.94-.24,2.18-.71,4.32-1.74,6.29-1.16,2.22-2.94,3.67-5.41,4.28-1.21,.3-2.42,.5-3.66,.51h-19.87c-.83-.02-1.51-.69-1.51-1.52V20.88c0-.83-.67-1.51-1.51-1.51h-10.4c-.83,0-1.51,.67-1.51,1.51V55.87Z"/></g><g id="Track"><g id="K"><rect class="cls-1" x="272.94" y=".11" width="13.34" height="57.21" rx="1.5" ry="1.5"/><path class="cls-1" d="M316.48,57.31h12.73c.4,0,.64-.45,.42-.78l-18.87-28.27c-.34-.52-.34-1.19,.02-1.69L328.89,.8c.23-.33,0-.79-.41-.79h-11.98c-.49,0-.94,.24-1.22,.63l-19.15,27.06c-.37,.52-.37,1.21,0,1.73l19.13,27.25c.3,.38,.74,.64,1.23,.64Z"/></g><path id="C" class="cls-1" d="M263.41,48.14c0-.83-.67-1.5-1.5-1.5h-25.46c-2.71,0-6.95-.26-9.47-4.6s-2.2-13.4-2.2-13.4h-.01s-.32-9.06,2.2-13.4,6.75-4.6,9.47-4.6h17.08c1.21,0,1.92-1.36,1.23-2.36l-5.34-7.64c-.28-.4-.74-.64-1.23-.64h-11.75s-13.63-.49-19.22,6.16c-6.27,7.45-5.56,22.47-5.56,22.47h.01s-.62,14.93,5.56,22.47c5.59,6.82,19.21,6.21,19.21,6.21l25.47-.02c.83,0,1.5-.67,1.5-1.5l.02-7.66Z"/><path id="A-2" class="cls-1" d="M134.49,57.31h10.31c.57,0,1.1-.32,1.35-.83l20.58-41.83c.55-1.12,2.14-1.12,2.69,0l9.54,19.26c.49,1-.23,2.17-1.34,2.17h-11.24c-.58,0-1.11,.33-1.35,.86l-3.12,6.57c-.47,1,.25,2.14,1.35,2.14h20.55c.57,0,1.09,.33,1.35,.84l4.9,10c.25,.51,.76,.83,1.33,.84h10.2c1.12,.01,1.86-1.16,1.36-2.16L176.2,.87c-.25-.51-.77-.84-1.35-.84h-13.66c-.57,0-1.09,.33-1.35,.84l-26.7,54.28c-.49,1,.24,2.16,1.34,2.16Z"/><path id="R-2" class="cls-1" d="M77.16,57.31h-10.4c-.83,0-1.5-.67-1.5-1.5V1.55c0-.83,.67-1.5,1.5-1.5h34.76s10.69-.23,16.08,3.93,5.32,11.02,5.32,11.02c0,0,.71,5.61-1.3,10.44-1,2.41-2.35,3.97-3.44,4.93-.75,.66-.62,1.86,.23,2.38,.99,.61,2.15,1.51,3.09,2.76,2.08,2.76,1.96,7.88,1.96,7.88v12.44c0,.83-.67,1.5-1.5,1.5h-10.4c-.83-.01-1.5-.69-1.5-1.51v-12.61s-.12-3.39-2.18-4.68-6.61-1.1-6.61-1.1l-13.8-.04c-.83,0-1.5-.67-1.5-1.5v-6.38c0-.83,.67-1.5,1.5-1.5h14.56s5.1,.56,7.19-3.53,.35-9.57,.35-9.57c0,0-.76-2.21-2.92-3.34s-5.81-.92-5.81-.92h-20.7c-.83,0-1.5,.67-1.5,1.5V55.74c0,.83-.67,1.57-1.5,1.57Z"/><path id="T" class="cls-1" d="M54.23,.04H1.5C.67,.04,0,.72,0,1.54v7.52c0,.83,.67,1.5,1.5,1.5H19.68c.83,0,1.5,.67,1.5,1.5V55.81c0,.83,.67,1.5,1.5,1.5h10.48c.83,0,1.5-.67,1.5-1.5V12.07c0-.83,.67-1.5,1.5-1.5h18.07c.83,0,1.5-.67,1.5-1.5V1.54c0-.83-.67-1.5-1.5-1.5Z"/></g></g></svg>