<svg width="1327" height="148" viewBox="0 0 1327 148" fill="none" xmlns="http://www.w3.org/2000/svg">
<path d="M1326.66 3.6001H1271.43H1265.06H1204.58L1176.16 40.6001H1243.46L1210.01 81.2701L1249.23 144.4H1309.83L1268.67 78.9301L1326.66 3.6001Z" fill="#FFD800"/>
<path d="M40.6 40.6001H0L7.8 3.6001H147.6L139.8 40.6001H99.4L77.4 144.4H18.6L40.6 40.6001Z" fill="white"/>
<path d="M183.8 94.2001L173.4 144.4H115.8L145.4 3.6001H231.2C266.2 3.6001 283.2 19.8001 283.2 41.4001C283.2 61.4001 270.6 74.2001 251.2 79.2001C261 84.4001 270 94.6001 264.6 119.6C262.8 128 261.2 137.4 261.6 144.4H205.8C204.2 139 205 128.8 208.2 114.4C211.4 100.4 210.6 94.2001 196.8 94.2001H183.8ZM190.4 62.8001H206.6C217.4 62.8001 222.8 56.8001 222.8 49.0001C222.8 42.0001 218.8 38.2001 210.8 38.2001H195.6L190.4 62.8001Z" fill="white"/>
<path d="M323.2 123.2L312.8 144.4H252.6L329 3.6001H406.6L427.4 144.4H369.2L367.4 123.2H323.2ZM364 86.4001C363 75.2001 361.8 53.8001 361 40.6001H359.6C355 53.4001 346.6 73.2001 340.8 86.4001H364Z" fill="white"/>
<path d="M579.19 90.6C569.99 126 543.99 148 492.79 148C441.59 148 419.39 119.8 419.39 85.8C419.39 51.8 439.4 0 511.39 0C562.99 0 584.59 24 584.79 56.8H527.59C528.59 43.2 524.79 34 511.99 34C488.19 34 481.59 72.4 481.59 88.4C481.59 104.4 487.39 112.2 498.59 112.2C508.99 112.2 517.59 106.2 523.39 90.6H579.19Z" fill="white"/>
<path d="M597.19 3.6001H655.79L644.19 58.6001C658.19 43.0001 676.39 21.6001 691.99 3.6001H760.59L695.39 63.6001L733.39 144.4H669.79L649.79 94.8001L633.79 107.6L625.99 144.4H567.39L597.19 3.6001Z" fill="white"/>
<path d="M753.39 3.6001H826.99C875.79 3.6001 899.19 33.6001 899.19 65.4001C899.19 118.2 859.59 144.4 806.99 144.4H723.59L753.39 3.6001ZM789.99 109H805.39C827.79 109 836.79 86.4001 836.79 64.8001C836.79 47.6001 832.19 39.0001 815.79 39.0001H804.59L789.99 109Z" fill="white"/>
<path d="M940.19 123.2L929.79 144.4H869.59L945.99 3.6001H1023.59L1044.39 144.4H986.19L984.39 123.2H940.19ZM980.99 86.4001C979.99 75.2001 978.79 53.8001 977.99 40.6001H976.59C971.99 53.4001 963.59 73.2001 957.79 86.4001H980.99Z" fill="white"/>
<path d="M1048.39 144.4L1058.79 95.6001C1059.39 92.8001 1058.99 91.6001 1057.79 88.8001L1023.99 3.6001H1085.59C1089.19 20.4001 1093.59 41.8001 1096.19 56.8001C1104.19 43.0001 1118.19 21.8001 1129.99 3.6001H1191.59L1119.59 93.4001C1118.39 94.8001 1117.39 96.8001 1116.59 100.2L1107.39 144.4H1048.39Z" fill="white"/>
</svg>
